<svg width="330" height="97" viewBox="0 0 330 97" fill="none" xmlns="http://www.w3.org/2000/svg">
<circle cx="36" cy="37" r="10" fill="#109691"/>
<circle cx="103" cy="71" r="10" fill="#11918D"/>
<circle cx="66" cy="92" r="5" fill="#1A5965"/>
<circle cx="82" cy="47" r="5" fill="#1A5965"/>
<circle cx="56" cy="61" r="5" fill="#1A5965"/>
<circle cx="92" cy="15" r="15" fill="#09C6B3"/>
<path d="M78.986 37.152V54H74.882V43.896L71.114 54H67.802L64.01 43.872V54H59.906V37.152H64.754L69.482 48.816L74.162 37.152H78.986ZM88.0332 54.192C86.7212 54.192 85.5372 53.912 84.4812 53.352C83.4412 52.792 82.6172 51.992 82.0092 50.952C81.4172 49.912 81.1212 48.696 81.1212 47.304C81.1212 45.928 81.4252 44.72 82.0332 43.68C82.6412 42.624 83.4732 41.816 84.5292 41.256C85.5852 40.696 86.7692 40.416 88.0812 40.416C89.3932 40.416 90.5772 40.696 91.6332 41.256C92.6892 41.816 93.5212 42.624 94.1292 43.68C94.7372 44.72 95.0412 45.928 95.0412 47.304C95.0412 48.68 94.7292 49.896 94.1052 50.952C93.4972 51.992 92.6572 52.792 91.5852 53.352C90.5292 53.912 89.3452 54.192 88.0332 54.192ZM88.0332 50.64C88.8172 50.64 89.4812 50.352 90.0252 49.776C90.5852 49.2 90.8652 48.376 90.8652 47.304C90.8652 46.232 90.5932 45.408 90.0492 44.832C89.5212 44.256 88.8652 43.968 88.0812 43.968C87.2812 43.968 86.6172 44.256 86.0892 44.832C85.5612 45.392 85.2972 46.216 85.2972 47.304C85.2972 48.376 85.5532 49.2 86.0652 49.776C86.5932 50.352 87.2492 50.64 88.0332 50.64ZM105.378 40.464C106.946 40.464 108.194 40.976 109.122 42C110.066 43.008 110.538 44.4 110.538 46.176V54H106.458V46.728C106.458 45.832 106.226 45.136 105.762 44.64C105.298 44.144 104.674 43.896 103.89 43.896C103.106 43.896 102.482 44.144 102.018 44.64C101.554 45.136 101.322 45.832 101.322 46.728V54H97.2185V40.608H101.322V42.384C101.738 41.792 102.298 41.328 103.002 40.992C103.706 40.64 104.498 40.464 105.378 40.464ZM115.454 39.216C114.734 39.216 114.142 39.008 113.678 38.592C113.23 38.16 113.006 37.632 113.006 37.008C113.006 36.368 113.23 35.84 113.678 35.424C114.142 34.992 114.734 34.776 115.454 34.776C116.158 34.776 116.734 34.992 117.182 35.424C117.646 35.84 117.878 36.368 117.878 37.008C117.878 37.632 117.646 38.16 117.182 38.592C116.734 39.008 116.158 39.216 115.454 39.216ZM117.494 40.608V54H113.39V40.608H117.494ZM127.932 50.52V54H125.844C124.356 54 123.196 53.64 122.364 52.92C121.532 52.184 121.116 50.992 121.116 49.344V44.016H119.484V40.608H121.116V37.344H125.22V40.608H127.908V44.016H125.22V49.392C125.22 49.792 125.316 50.08 125.508 50.256C125.7 50.432 126.02 50.52 126.468 50.52H127.932ZM136.314 54.192C135.002 54.192 133.818 53.912 132.762 53.352C131.722 52.792 130.898 51.992 130.29 50.952C129.698 49.912 129.402 48.696 129.402 47.304C129.402 45.928 129.706 44.72 130.314 43.68C130.922 42.624 131.754 41.816 132.81 41.256C133.866 40.696 135.05 40.416 136.362 40.416C137.674 40.416 138.858 40.696 139.914 41.256C140.97 41.816 141.802 42.624 142.41 43.68C143.018 44.72 143.322 45.928 143.322 47.304C143.322 48.68 143.01 49.896 142.386 50.952C141.778 51.992 140.938 52.792 139.866 53.352C138.81 53.912 137.626 54.192 136.314 54.192ZM136.314 50.64C137.098 50.64 137.762 50.352 138.306 49.776C138.866 49.2 139.146 48.376 139.146 47.304C139.146 46.232 138.874 45.408 138.33 44.832C137.802 44.256 137.146 43.968 136.362 43.968C135.562 43.968 134.898 44.256 134.37 44.832C133.842 45.392 133.578 46.216 133.578 47.304C133.578 48.376 133.834 49.2 134.346 49.776C134.874 50.352 135.53 50.64 136.314 50.64ZM149.604 42.84C150.084 42.104 150.684 41.528 151.404 41.112C152.124 40.68 152.924 40.464 153.804 40.464V44.808H152.676C151.652 44.808 150.884 45.032 150.372 45.48C149.86 45.912 149.604 46.68 149.604 47.784V54H145.5V40.608H149.604V42.84ZM157.829 39.216C157.109 39.216 156.517 39.008 156.053 38.592C155.605 38.16 155.381 37.632 155.381 37.008C155.381 36.368 155.605 35.84 156.053 35.424C156.517 34.992 157.109 34.776 157.829 34.776C158.533 34.776 159.109 34.992 159.557 35.424C160.021 35.84 160.253 36.368 160.253 37.008C160.253 37.632 160.021 38.16 159.557 38.592C159.109 39.008 158.533 39.216 157.829 39.216ZM159.869 40.608V54H155.765V40.608H159.869ZM171.003 40.464C172.571 40.464 173.819 40.976 174.747 42C175.691 43.008 176.163 44.4 176.163 46.176V54H172.083V46.728C172.083 45.832 171.851 45.136 171.387 44.64C170.923 44.144 170.299 43.896 169.515 43.896C168.731 43.896 168.107 44.144 167.643 44.64C167.179 45.136 166.947 45.832 166.947 46.728V54H162.843V40.608H166.947V42.384C167.363 41.792 167.923 41.328 168.627 40.992C169.331 40.64 170.123 40.464 171.003 40.464ZM184.103 40.416C185.047 40.416 185.871 40.608 186.575 40.992C187.295 41.376 187.847 41.88 188.231 42.504V40.608H192.335V53.976C192.335 55.208 192.087 56.32 191.591 57.312C191.111 58.32 190.367 59.12 189.359 59.712C188.367 60.304 187.127 60.6 185.639 60.6C183.655 60.6 182.047 60.128 180.815 59.184C179.583 58.256 178.879 56.992 178.703 55.392H182.759C182.887 55.904 183.191 56.304 183.671 56.592C184.151 56.896 184.743 57.048 185.447 57.048C186.295 57.048 186.967 56.8 187.463 56.304C187.975 55.824 188.231 55.048 188.231 53.976V52.08C187.831 52.704 187.279 53.216 186.575 53.616C185.871 54 185.047 54.192 184.103 54.192C182.999 54.192 181.999 53.912 181.103 53.352C180.207 52.776 179.495 51.968 178.967 50.928C178.455 49.872 178.199 48.656 178.199 47.28C178.199 45.904 178.455 44.696 178.967 43.656C179.495 42.616 180.207 41.816 181.103 41.256C181.999 40.696 182.999 40.416 184.103 40.416ZM188.231 47.304C188.231 46.28 187.943 45.472 187.367 44.88C186.807 44.288 186.119 43.992 185.303 43.992C184.487 43.992 183.791 44.288 183.215 44.88C182.655 45.456 182.375 46.256 182.375 47.28C182.375 48.304 182.655 49.12 183.215 49.728C183.791 50.32 184.487 50.616 185.303 50.616C186.119 50.616 186.807 50.32 187.367 49.728C187.943 49.136 188.231 48.328 188.231 47.304ZM210.59 45.36C211.566 45.568 212.35 46.056 212.942 46.824C213.534 47.576 213.83 48.44 213.83 49.416C213.83 50.824 213.334 51.944 212.342 52.776C211.366 53.592 209.998 54 208.238 54H200.39V37.152H207.974C209.686 37.152 211.022 37.544 211.982 38.328C212.958 39.112 213.446 40.176 213.446 41.52C213.446 42.512 213.182 43.336 212.654 43.992C212.142 44.648 211.454 45.104 210.59 45.36ZM204.494 43.968H207.182C207.854 43.968 208.366 43.824 208.718 43.536C209.086 43.232 209.27 42.792 209.27 42.216C209.27 41.64 209.086 41.2 208.718 40.896C208.366 40.592 207.854 40.44 207.182 40.44H204.494V43.968ZM207.518 50.688C208.206 50.688 208.734 50.536 209.102 50.232C209.486 49.912 209.678 49.456 209.678 48.864C209.678 48.272 209.478 47.808 209.078 47.472C208.694 47.136 208.158 46.968 207.47 46.968H204.494V50.688H207.518ZM215.395 47.28C215.395 45.904 215.651 44.696 216.163 43.656C216.691 42.616 217.403 41.816 218.299 41.256C219.195 40.696 220.195 40.416 221.299 40.416C222.243 40.416 223.067 40.608 223.771 40.992C224.491 41.376 225.043 41.88 225.427 42.504V40.608H229.531V54H225.427V52.104C225.027 52.728 224.467 53.232 223.747 53.616C223.043 54 222.219 54.192 221.275 54.192C220.187 54.192 219.195 53.912 218.299 53.352C217.403 52.776 216.691 51.968 216.163 50.928C215.651 49.872 215.395 48.656 215.395 47.28ZM225.427 47.304C225.427 46.28 225.139 45.472 224.563 44.88C224.003 44.288 223.315 43.992 222.499 43.992C221.683 43.992 220.987 44.288 220.411 44.88C219.851 45.456 219.571 46.256 219.571 47.28C219.571 48.304 219.851 49.12 220.411 49.728C220.987 50.32 221.683 50.616 222.499 50.616C223.315 50.616 224.003 50.32 224.563 49.728C225.139 49.136 225.427 48.328 225.427 47.304ZM240.66 40.464C242.228 40.464 243.476 40.976 244.404 42C245.348 43.008 245.82 44.4 245.82 46.176V54H241.74V46.728C241.74 45.832 241.508 45.136 241.044 44.64C240.58 44.144 239.956 43.896 239.172 43.896C238.388 43.896 237.764 44.144 237.3 44.64C236.836 45.136 236.604 45.832 236.604 46.728V54H232.5V40.608H236.604V42.384C237.02 41.792 237.58 41.328 238.284 40.992C238.988 40.64 239.78 40.464 240.66 40.464ZM250.712 39.216C249.992 39.216 249.4 39.008 248.936 38.592C248.488 38.16 248.264 37.632 248.264 37.008C248.264 36.368 248.488 35.84 248.936 35.424C249.4 34.992 249.992 34.776 250.712 34.776C251.416 34.776 251.992 34.992 252.44 35.424C252.904 35.84 253.136 36.368 253.136 37.008C253.136 37.632 252.904 38.16 252.44 38.592C251.992 39.008 251.416 39.216 250.712 39.216ZM252.776 55.728C252.776 57.376 252.36 58.56 251.528 59.28C250.696 60.016 249.536 60.384 248.048 60.384H246.44V56.904H247.424C247.872 56.904 248.192 56.816 248.384 56.64C248.576 56.464 248.672 56.176 248.672 55.776V40.608H252.776V55.728ZM257.79 39.216C257.07 39.216 256.478 39.008 256.014 38.592C255.566 38.16 255.342 37.632 255.342 37.008C255.342 36.368 255.566 35.84 256.014 35.424C256.478 34.992 257.07 34.776 257.79 34.776C258.494 34.776 259.07 34.992 259.518 35.424C259.982 35.84 260.214 36.368 260.214 37.008C260.214 37.632 259.982 38.16 259.518 38.592C259.07 39.008 258.494 39.216 257.79 39.216ZM259.83 40.608V54H255.726V40.608H259.83ZM266.908 42.84C267.388 42.104 267.988 41.528 268.708 41.112C269.428 40.68 270.228 40.464 271.108 40.464V44.808H269.98C268.956 44.808 268.188 45.032 267.676 45.48C267.164 45.912 266.908 46.68 266.908 47.784V54H262.804V40.608H266.908V42.84Z" fill="white"/>
</svg>
