<svg width="330" height="97" viewBox="0 0 330 97" fill="none" xmlns="http://www.w3.org/2000/svg">
<circle cx="36" cy="37" r="10" fill="#109691"/>
<circle cx="103" cy="71" r="10" fill="#11918D"/>
<circle cx="66" cy="92" r="5" fill="#1A5965"/>
<circle cx="82" cy="47" r="5" fill="#1A5965"/>
<circle cx="56" cy="61" r="5" fill="#1A5965"/>
<circle cx="92" cy="15" r="15" fill="#09C6B3"/>
<path d="M71.035 42.576C71.035 43.552 70.811 44.448 70.363 45.264C69.915 46.064 69.227 46.712 68.299 47.208C67.371 47.704 66.219 47.952 64.843 47.952H62.299V54H58.195V37.152H64.843C66.187 37.152 67.323 37.384 68.251 37.848C69.179 38.312 69.875 38.952 70.339 39.768C70.803 40.584 71.035 41.52 71.035 42.576ZM64.531 44.688C65.315 44.688 65.899 44.504 66.283 44.136C66.667 43.768 66.859 43.248 66.859 42.576C66.859 41.904 66.667 41.384 66.283 41.016C65.899 40.648 65.315 40.464 64.531 40.464H62.299V44.688H64.531ZM79.2676 54.192C77.9556 54.192 76.7716 53.912 75.7156 53.352C74.6756 52.792 73.8516 51.992 73.2436 50.952C72.6516 49.912 72.3556 48.696 72.3556 47.304C72.3556 45.928 72.6596 44.72 73.2676 43.68C73.8756 42.624 74.7076 41.816 75.7636 41.256C76.8196 40.696 78.0036 40.416 79.3156 40.416C80.6276 40.416 81.8116 40.696 82.8676 41.256C83.9236 41.816 84.7556 42.624 85.3636 43.68C85.9716 44.72 86.2756 45.928 86.2756 47.304C86.2756 48.68 85.9636 49.896 85.3396 50.952C84.7316 51.992 83.8916 52.792 82.8196 53.352C81.7636 53.912 80.5796 54.192 79.2676 54.192ZM79.2676 50.64C80.0516 50.64 80.7156 50.352 81.2596 49.776C81.8196 49.2 82.0996 48.376 82.0996 47.304C82.0996 46.232 81.8276 45.408 81.2836 44.832C80.7556 44.256 80.0996 43.968 79.3156 43.968C78.5156 43.968 77.8516 44.256 77.3236 44.832C76.7956 45.392 76.5316 46.216 76.5316 47.304C76.5316 48.376 76.7876 49.2 77.2996 49.776C77.8276 50.352 78.4836 50.64 79.2676 50.64ZM107.677 40.608L104.053 54H99.5168L97.4048 45.312L95.2208 54H90.7088L87.0608 40.608H91.1648L93.0608 50.184L95.3168 40.608H99.6608L101.941 50.136L103.813 40.608H107.677ZM121.866 47.088C121.866 47.472 121.842 47.872 121.794 48.288H112.506C112.57 49.12 112.834 49.76 113.298 50.208C113.778 50.64 114.362 50.856 115.05 50.856C116.074 50.856 116.786 50.424 117.186 49.56H121.554C121.33 50.44 120.922 51.232 120.33 51.936C119.754 52.64 119.026 53.192 118.146 53.592C117.266 53.992 116.282 54.192 115.194 54.192C113.882 54.192 112.714 53.912 111.69 53.352C110.666 52.792 109.866 51.992 109.29 50.952C108.714 49.912 108.426 48.696 108.426 47.304C108.426 45.912 108.706 44.696 109.266 43.656C109.842 42.616 110.642 41.816 111.666 41.256C112.69 40.696 113.866 40.416 115.194 40.416C116.49 40.416 117.642 40.688 118.65 41.232C119.658 41.776 120.442 42.552 121.002 43.56C121.578 44.568 121.866 45.744 121.866 47.088ZM117.666 46.008C117.666 45.304 117.426 44.744 116.946 44.328C116.466 43.912 115.866 43.704 115.146 43.704C114.458 43.704 113.874 43.904 113.394 44.304C112.93 44.704 112.642 45.272 112.53 46.008H117.666ZM128.135 42.84C128.615 42.104 129.215 41.528 129.935 41.112C130.655 40.68 131.455 40.464 132.335 40.464V44.808H131.207C130.183 44.808 129.415 45.032 128.903 45.48C128.391 45.912 128.135 46.68 128.135 47.784V54H124.031V40.608H128.135V42.84ZM158.463 37.152V54H154.359V43.896L150.591 54H147.279L143.487 43.872V54H139.383V37.152H144.231L148.959 48.816L153.639 37.152H158.463ZM167.51 54.192C166.198 54.192 165.014 53.912 163.958 53.352C162.918 52.792 162.094 51.992 161.486 50.952C160.894 49.912 160.598 48.696 160.598 47.304C160.598 45.928 160.902 44.72 161.51 43.68C162.118 42.624 162.95 41.816 164.006 41.256C165.062 40.696 166.246 40.416 167.558 40.416C168.87 40.416 170.054 40.696 171.11 41.256C172.166 41.816 172.998 42.624 173.606 43.68C174.214 44.72 174.518 45.928 174.518 47.304C174.518 48.68 174.206 49.896 173.582 50.952C172.974 51.992 172.134 52.792 171.062 53.352C170.006 53.912 168.822 54.192 167.51 54.192ZM167.51 50.64C168.294 50.64 168.958 50.352 169.502 49.776C170.062 49.2 170.342 48.376 170.342 47.304C170.342 46.232 170.07 45.408 169.526 44.832C168.998 44.256 168.342 43.968 167.558 43.968C166.758 43.968 166.094 44.256 165.566 44.832C165.038 45.392 164.774 46.216 164.774 47.304C164.774 48.376 165.03 49.2 165.542 49.776C166.07 50.352 166.726 50.64 167.51 50.64ZM184.855 40.464C186.423 40.464 187.671 40.976 188.599 42C189.543 43.008 190.015 44.4 190.015 46.176V54H185.935V46.728C185.935 45.832 185.703 45.136 185.239 44.64C184.775 44.144 184.151 43.896 183.367 43.896C182.583 43.896 181.959 44.144 181.495 44.64C181.031 45.136 180.799 45.832 180.799 46.728V54H176.695V40.608H180.799V42.384C181.215 41.792 181.775 41.328 182.479 40.992C183.183 40.64 183.975 40.464 184.855 40.464ZM194.931 39.216C194.211 39.216 193.619 39.008 193.155 38.592C192.707 38.16 192.483 37.632 192.483 37.008C192.483 36.368 192.707 35.84 193.155 35.424C193.619 34.992 194.211 34.776 194.931 34.776C195.635 34.776 196.211 34.992 196.659 35.424C197.123 35.84 197.355 36.368 197.355 37.008C197.355 37.632 197.123 38.16 196.659 38.592C196.211 39.008 195.635 39.216 194.931 39.216ZM196.971 40.608V54H192.867V40.608H196.971ZM207.409 50.52V54H205.321C203.833 54 202.673 53.64 201.841 52.92C201.009 52.184 200.593 50.992 200.593 49.344V44.016H198.961V40.608H200.593V37.344H204.697V40.608H207.385V44.016H204.697V49.392C204.697 49.792 204.793 50.08 204.985 50.256C205.177 50.432 205.497 50.52 205.945 50.52H207.409ZM215.791 54.192C214.479 54.192 213.295 53.912 212.239 53.352C211.199 52.792 210.375 51.992 209.767 50.952C209.175 49.912 208.879 48.696 208.879 47.304C208.879 45.928 209.183 44.72 209.791 43.68C210.399 42.624 211.231 41.816 212.287 41.256C213.343 40.696 214.527 40.416 215.839 40.416C217.151 40.416 218.335 40.696 219.391 41.256C220.447 41.816 221.279 42.624 221.887 43.68C222.495 44.72 222.799 45.928 222.799 47.304C222.799 48.68 222.487 49.896 221.863 50.952C221.255 51.992 220.415 52.792 219.343 53.352C218.287 53.912 217.103 54.192 215.791 54.192ZM215.791 50.64C216.575 50.64 217.239 50.352 217.783 49.776C218.343 49.2 218.623 48.376 218.623 47.304C218.623 46.232 218.351 45.408 217.807 44.832C217.279 44.256 216.623 43.968 215.839 43.968C215.039 43.968 214.375 44.256 213.847 44.832C213.319 45.392 213.055 46.216 213.055 47.304C213.055 48.376 213.311 49.2 213.823 49.776C214.351 50.352 215.007 50.64 215.791 50.64ZM229.08 42.84C229.56 42.104 230.16 41.528 230.88 41.112C231.6 40.68 232.4 40.464 233.28 40.464V44.808H232.152C231.128 44.808 230.36 45.032 229.848 45.48C229.336 45.912 229.08 46.68 229.08 47.784V54H224.976V40.608H229.08V42.84ZM237.306 39.216C236.586 39.216 235.994 39.008 235.53 38.592C235.082 38.16 234.858 37.632 234.858 37.008C234.858 36.368 235.082 35.84 235.53 35.424C235.994 34.992 236.586 34.776 237.306 34.776C238.01 34.776 238.586 34.992 239.034 35.424C239.498 35.84 239.73 36.368 239.73 37.008C239.73 37.632 239.498 38.16 239.034 38.592C238.586 39.008 238.01 39.216 237.306 39.216ZM239.346 40.608V54H235.242V40.608H239.346ZM250.48 40.464C252.048 40.464 253.296 40.976 254.224 42C255.168 43.008 255.64 44.4 255.64 46.176V54H251.56V46.728C251.56 45.832 251.328 45.136 250.864 44.64C250.4 44.144 249.776 43.896 248.992 43.896C248.208 43.896 247.584 44.144 247.12 44.64C246.656 45.136 246.424 45.832 246.424 46.728V54H242.32V40.608H246.424V42.384C246.84 41.792 247.4 41.328 248.104 40.992C248.808 40.64 249.6 40.464 250.48 40.464ZM263.58 40.416C264.524 40.416 265.348 40.608 266.052 40.992C266.772 41.376 267.324 41.88 267.708 42.504V40.608H271.812V53.976C271.812 55.208 271.564 56.32 271.068 57.312C270.588 58.32 269.844 59.12 268.836 59.712C267.844 60.304 266.604 60.6 265.116 60.6C263.132 60.6 261.524 60.128 260.292 59.184C259.06 58.256 258.356 56.992 258.18 55.392H262.236C262.364 55.904 262.668 56.304 263.148 56.592C263.628 56.896 264.22 57.048 264.924 57.048C265.772 57.048 266.444 56.8 266.94 56.304C267.452 55.824 267.708 55.048 267.708 53.976V52.08C267.308 52.704 266.756 53.216 266.052 53.616C265.348 54 264.524 54.192 263.58 54.192C262.476 54.192 261.476 53.912 260.58 53.352C259.684 52.776 258.972 51.968 258.444 50.928C257.932 49.872 257.676 48.656 257.676 47.28C257.676 45.904 257.932 44.696 258.444 43.656C258.972 42.616 259.684 41.816 260.58 41.256C261.476 40.696 262.476 40.416 263.58 40.416ZM267.708 47.304C267.708 46.28 267.42 45.472 266.844 44.88C266.284 44.288 265.596 43.992 264.78 43.992C263.964 43.992 263.268 44.288 262.692 44.88C262.132 45.456 261.852 46.256 261.852 47.28C261.852 48.304 262.132 49.12 262.692 49.728C263.268 50.32 263.964 50.616 264.78 50.616C265.596 50.616 266.284 50.32 266.844 49.728C267.42 49.136 267.708 48.328 267.708 47.304Z" fill="white"/>
</svg>
